<svg width="230" height="50" viewBox="0 0 230 50" fill="none" xmlns="http://www.w3.org/2000/svg">
<g id="Union">
<mask id="path-1-inside-1_747_1150" fill="white">
<path fill-rule="evenodd" clip-rule="evenodd" d="M203.478 0H0.989014V50H203.478H203.989H229.967L203.989 0.964291V0H203.478Z"/>
</mask>
<path fill-rule="evenodd" clip-rule="evenodd" d="M203.478 0H0.989014V50H203.478H203.989H229.967L203.989 0.964291V0H203.478Z" fill="#F0F0F0"/>
<path d="M0.989014 0V-1H-0.0109863V0H0.989014ZM0.989014 50H-0.0109863V51H0.989014V50ZM229.967 50V51H231.629L230.851 49.5319L229.967 50ZM203.989 0.964291H202.989V1.21282L203.105 1.43243L203.989 0.964291ZM203.989 0H204.989V-1H203.989V0ZM0.989014 1H203.478V-1H0.989014V1ZM1.98901 50V0H-0.0109863V50H1.98901ZM203.478 49H0.989014V51H203.478V49ZM203.989 49H203.478V51H203.989V49ZM229.967 49H203.989V51H229.967V49ZM203.105 1.43243L229.084 50.4681L230.851 49.5319L204.873 0.496148L203.105 1.43243ZM202.989 0V0.964291H204.989V0H202.989ZM203.478 1H203.989V-1H203.478V1Z" fill="#01437C" mask="url(#path-1-inside-1_747_1150)"/>
</g>
</svg>
