<svg width="486" height="862" viewBox="0 0 486 862" fill="none" xmlns="http://www.w3.org/2000/svg">
<path fill-rule="evenodd" clip-rule="evenodd" d="M201.138 200.608C201.1 193.956 201.027 192.992 201.542 192.422C202.055 191.854 203.157 191.678 204.186 192.073C205.212 192.467 206.168 193.429 206.774 196.911C207.381 200.393 207.639 206.392 207.649 211.367C207.659 216.341 207.424 220.29 207.34 222.958C207.258 225.627 207.328 227.019 206.326 228.434C205.323 229.849 203.25 231.291 202.213 231.882C201.174 232.471 201.174 232.209 201.174 225.906C201.174 219.604 201.174 207.261 201.138 200.608ZM238.803 479.654L220.361 512.04H238.803V479.654ZM424.065 464.638C423.174 468.309 421.536 471.731 416.682 482.083C409.081 498.29 401.536 514.534 394.047 530.815C384.339 551.922 372.989 576.86 363.964 596.664C354.938 616.469 348.241 631.137 340.993 646.213C333.616 661.57 325.955 676.732 318.017 691.687C310.086 706.603 302.02 720.947 293.61 734.637C285.2 748.33 276.448 761.368 269.679 770.579C262.908 779.789 258.124 785.164 253.952 789.696C249.781 794.224 246.227 797.904 241.167 799.745C236.108 801.584 229.544 801.584 223.733 798.522C217.921 795.46 212.861 789.334 206.298 780.811C199.733 772.29 191.665 761.368 184.965 750.365C178.266 739.365 172.932 728.281 167.257 716.871C162.484 707.276 157.464 697.425 151.11 681.841L149.481 681.683C134.795 680.268 126.76 679.496 116.367 678.435C105.974 677.376 93.2224 676.032 86.7107 675.439C80.199 674.849 79.9249 675.013 78.353 668.492C76.7784 661.973 73.9074 648.772 71.9345 641.434C69.9615 634.099 68.8866 632.633 71.7576 631.738C74.6285 630.841 81.4468 630.516 89.1644 629.457C96.882 628.398 105.496 626.604 116.643 623.752C120.744 622.704 124.833 621.589 128.908 620.407C126.309 612.752 123.861 605.465 121.723 599.107C114.679 578.164 110.987 567.243 107.364 554.448C103.739 541.652 100.185 526.982 97.7233 515.575C95.2628 504.166 93.8962 496.016 92.6646 486.316C91.4344 476.618 90.3392 465.373 90.2515 453.652C90.1623 441.934 91.0779 429.742 93.1967 418.658C95.3169 407.574 98.6375 397.599 101.941 390.657C105.244 383.713 108.527 379.802 110.169 377.844C111.809 375.892 111.809 375.892 111.809 340.929C111.809 305.966 111.809 236.041 111.947 201.079C112.084 166.117 112.358 166.117 113.041 165.14C113.724 164.161 114.818 162.206 117.006 159.596C119.195 156.989 122.476 153.728 124.869 151.04C127.262 148.352 128.767 146.232 129.793 144.276C130.816 142.319 131.366 140.525 131.023 138.407C130.681 136.289 129.451 133.845 130.066 131.236C130.681 128.627 133.143 125.858 138.202 121.701C143.263 117.545 150.919 112.003 159.055 106.623C167.193 101.245 175.807 96.0302 185.231 91.087C194.654 86.1422 204.888 81.471 213.297 78.0489C219.373 75.5672 225.519 73.3387 231.725 71.3673C235.153 70.2808 235.427 70.2808 235.564 90.9808C235.703 111.679 235.703 153.079 235.633 173.777C235.564 194.477 235.427 194.477 237.217 193.174C239.007 191.868 242.722 189.262 246.755 186.655C250.787 184.047 255.142 181.439 260.463 178.342C265.783 175.245 272.075 171.661 281.031 167.503C289.985 163.347 301.611 158.621 313.369 154.626C325.131 150.636 337.027 147.374 347.215 144.847C357.403 142.32 365.88 140.529 371.596 139.898C377.308 139.267 380.263 139.796 381.835 139.878C383.407 139.959 383.603 139.59 383.697 189.365C383.794 239.14 383.794 339.057 383.589 389.175C383.384 439.296 382.972 439.621 384.204 439.785C385.435 439.947 388.308 439.947 392 439.867C395.689 439.785 400.205 439.622 404.238 439.622C408.272 439.622 411.829 439.785 415.044 440.842C418.257 441.902 421.124 443.859 422.765 446.061C424.405 448.258 424.819 450.705 424.956 453.882C425.089 457.061 424.955 460.971 424.065 464.638ZM132.205 599.49C134.161 605.426 136.256 611.477 138.403 617.475C139.27 617.188 140.132 616.897 140.996 616.601C138.82 610.545 136.719 604.453 134.692 598.325C126.567 573.68 121.713 553.609 117.438 535.161C113.225 516.978 110.4 504.1 108.425 492.084C106.593 480.927 105.35 469.643 104.705 458.301C104.128 448.136 104.17 440.252 104.837 432.741C105.535 424.917 106.92 417.586 108.841 411.54C110.505 406.309 112.695 401.545 115.942 396.088C118.582 391.65 121.327 387.724 122.648 385.836C124.325 383.436 124.325 383.436 124.325 347.979C124.325 314.014 124.325 243.338 124.394 208.46C124.456 176.87 124.58 174.173 125.265 173.187L125.901 172.255C126.883 170.809 128.364 168.623 129.862 166.901C130.976 165.62 132.164 164.52 133.421 163.358C134.265 162.578 135.15 161.758 136.086 160.823C138.485 158.421 141.419 155.075 142.793 150.47C143.676 147.516 143.879 144.121 144.042 141.393C144.122 140.062 144.198 138.805 144.337 137.889C144.653 135.8 145.208 135.429 147.042 134.201L147.251 134.061C150.103 132.125 152.923 130.123 155.709 128.056L157.101 127.022C160.16 124.751 163.625 122.176 168.265 119.238C173.021 116.223 179.62 112.449 186.846 108.61C193.852 104.89 199.18 102.319 204.66 100.019C211.693 97.0668 218.812 94.6395 220.168 94.1823C220.449 94.0874 220.782 93.9747 221.015 93.928C221.468 95.3348 221.448 101.212 221.416 110.609L221.407 113.178C221.374 123.891 221.356 139.917 221.339 155.935C221.321 171.965 221.305 187.987 221.27 198.667L221.258 202.344C221.206 216.626 221.2 218.82 222.206 220.026C222.535 220.422 222.973 220.637 223.439 220.637C224.088 220.637 224.623 220.233 225.22 219.781C226.137 219.089 227.479 218.094 229.071 216.914C231.421 215.177 233.767 213.43 236.107 211.673L236.891 211.084C241.176 207.858 245.608 204.522 254.497 199.029C260.314 195.437 275.805 186.167 293.977 177.727C309.08 170.716 325.939 164.318 339.076 160.612C351.694 157.05 360.226 156.187 364.821 155.722L369.328 155.263C369.432 158.666 369.432 170.038 369.432 201.851C369.432 248.911 369.432 346.831 369.232 406.646C369.194 419.542 369.124 432.439 369.021 445.335C369.92 445.166 370.809 445.007 371.696 444.85C371.789 433.977 371.851 421.412 371.903 406.658C372.103 346.838 372.103 248.912 372.103 201.843C372.103 178.144 372.103 166.248 372.063 160.049C372.015 152.728 372.009 151.964 370.442 151.964L364.584 152.548C359.931 153.018 351.27 153.894 338.458 157.51C325.207 161.248 308.216 167.695 293.005 174.756C275.37 182.946 260.537 191.706 253.265 196.198C244.275 201.753 239.592 205.278 235.461 208.388L234.678 208.977C232.343 210.73 230.003 212.473 227.657 214.207C226.218 215.274 224.979 216.19 224.052 216.888C223.884 214.775 223.902 209.922 223.929 202.355L223.941 198.679C223.975 187.995 223.992 171.97 224.01 155.936C224.027 139.92 224.043 123.898 224.079 113.187L224.087 110.618C224.137 96.0881 224.147 93.0636 222.846 91.5071C222.627 91.248 222.367 91.0442 222.081 90.9081C221.795 90.772 221.489 90.7064 221.181 90.7152C220.615 90.7152 220.044 90.9083 219.439 91.1111C218.069 91.5731 210.878 94.0262 203.768 97.0089C198.217 99.3412 192.829 101.939 185.755 105.696C178.475 109.564 171.818 113.374 167.008 116.421C162.285 119.412 158.778 122.018 155.684 124.316L154.297 125.345C151.544 127.39 148.757 129.369 145.937 131.281L145.732 131.418C143.784 132.722 142.245 133.75 141.705 137.317C141.54 138.404 141.459 139.745 141.374 141.163C141.215 143.83 141.035 146.853 140.275 149.398C139.115 153.28 136.507 156.237 134.367 158.378C133.458 159.287 132.6 160.079 131.781 160.838C130.465 162.054 129.223 163.204 128.005 164.604C126.388 166.463 124.844 168.741 123.821 170.247L123.188 171.175C121.869 173.076 121.789 173.188 121.72 208.447C121.651 243.33 121.651 314.008 121.651 347.974C121.651 381.316 121.622 382.321 120.594 383.79C119.253 385.709 116.46 389.699 113.761 394.238C110.377 399.925 108.089 404.91 106.342 410.406C104.34 416.703 102.901 424.307 102.178 432.398C101.494 440.1 101.45 448.152 102.038 458.508C102.691 469.985 103.949 481.402 105.803 492.69C107.793 504.805 110.632 517.744 114.861 536.003C119.154 554.536 124.031 574.702 132.205 599.49ZM341.443 269.356C341.443 273.158 341.443 273.755 338.333 276.194C335.223 278.631 329.007 282.913 325.784 285.548C322.563 288.183 322.341 289.172 322.231 290.668C322.119 292.163 322.118 294.162 322.867 295.4C323.619 296.64 325.119 297.118 329.801 294.652C334.483 292.186 342.345 286.774 346.275 283.619C350.207 280.468 350.207 279.569 350.207 260.661C350.207 241.754 350.207 204.834 350.163 186.18C350.118 167.526 350.03 167.134 348.356 167.463C346.676 167.79 343.41 168.833 341.841 169.356C340.272 169.877 340.404 169.877 340.469 180.997C340.535 192.118 340.535 214.36 340.48 225.545C340.422 236.732 340.314 236.864 339.716 237.303C338.807 237.975 337.857 238.563 336.873 239.063C335.716 239.633 334.495 240.022 333.731 240.033C332.965 240.046 332.656 239.679 332.504 228.494C332.352 217.307 332.352 195.302 332.149 184.234C331.947 173.166 331.543 173.037 330.244 173.323C328.945 173.608 326.75 174.312 325.55 174.988C324.349 175.662 324.144 176.314 324.058 177.13C323.971 177.946 324 178.925 324.013 189.925C324.032 200.927 324.032 221.954 324.032 234.424C324.032 246.892 324.032 250.8 324.663 253.192C325.296 255.583 326.564 256.453 328.841 255.763C331.112 255.067 334.395 252.811 336.313 251.349C338.233 249.889 338.789 249.226 339.232 249.007C339.675 248.788 340.005 249.015 340.356 249.513C340.707 250.007 341.076 250.771 341.261 254.659C341.443 258.546 341.443 265.554 341.443 269.356ZM306.998 219.902C307.018 202.579 307.057 202.408 308.728 201.185C310.4 199.963 313.707 197.689 315.395 196.551C317.083 195.411 317.152 195.411 317.183 192.52C317.219 189.628 317.219 183.839 317.219 181.029C317.219 178.217 317.219 178.379 311.765 181.605C306.313 184.831 295.409 191.121 289.86 194.318C284.314 197.516 284.126 197.626 284.271 200.491C284.415 203.356 284.894 208.979 285.302 211.647C285.709 214.315 286.046 214.026 287.507 212.99C288.969 211.953 291.555 210.175 293.711 209.006C295.869 207.834 297.596 207.274 298.477 207.491C299.36 207.707 299.398 208.697 299.482 226.247C299.568 243.797 299.7 277.907 299.745 294.864C299.787 311.825 299.745 311.633 301.001 310.658C302.258 309.684 304.814 307.925 306.028 307.044C307.24 306.162 307.111 306.162 307.044 288.929C306.98 271.695 306.98 237.223 306.998 219.902ZM260.41 515.259V512.04H241.504V467.651L216.85 512.04H207.523L156.522 578.454L156.428 579.292V605.399H159.129V580.541L208.692 515.259H260.41ZM233.402 534.575V549.062H240.154V534.575H233.402ZM214.496 534.575V549.062H222.599V534.575H214.496ZM198.291 544.233V558.719H202.342V544.233H198.291ZM184.787 563.548V574.816H188.838V563.548H184.787ZM169.933 582.864V594.132H173.984V582.864H169.933ZM133.265 272.941C133.222 293.058 133.135 293.422 137.253 290.922C141.369 288.426 149.691 283.061 154.004 280.038C158.316 277.015 158.619 276.331 158.143 274.721C157.669 273.113 156.418 270.578 155.418 269.448C154.42 268.316 153.674 268.588 151.787 269.702C149.899 270.813 146.87 272.765 145.233 273.821C143.597 274.876 143.354 275.032 143.234 259.471C143.112 243.911 143.112 212.633 143.061 196.778C143.008 180.923 142.905 180.491 144.462 179.237C146.021 177.983 149.239 175.91 150.919 174.738C152.597 173.567 152.738 173.298 152.807 171.347C152.875 169.396 152.875 165.763 152.624 163.91C152.372 162.054 151.865 161.982 151.362 161.905C145.301 165.811 139.24 169.718 136.233 171.579C133.223 173.438 133.266 173.257 133.289 193.103C133.309 212.95 133.309 252.822 133.265 272.941ZM178.598 168.194C178.567 180.768 178.567 205.473 178.567 222.141C178.567 238.81 178.567 247.444 178.532 251.803C178.498 256.164 178.429 256.247 180.148 255.064C181.866 253.88 185.37 251.426 187.134 250.198C188.9 248.97 188.926 248.965 188.937 248.89C188.95 248.817 188.949 248.677 188.929 230.374C188.908 212.069 188.865 175.603 188.722 157.275C188.58 138.95 188.335 138.761 186.88 138.75C185.424 138.74 182.757 138.908 178.096 141.936C173.43 144.963 166.768 150.853 163.476 153.879C160.184 156.905 160.259 157.066 160.299 176.063C160.336 195.062 160.336 232.895 160.366 251.843C160.396 270.792 160.457 270.855 162.158 269.704C163.858 268.551 167.201 266.185 168.932 264.727C170.663 263.267 170.786 262.713 170.845 245.746C170.906 228.78 170.906 195.401 170.906 178.503C170.906 161.604 170.906 161.185 172.215 159.968C173.525 158.753 176.144 156.743 177.419 155.96C178.694 155.173 178.629 155.619 178.598 168.194ZM199.384 175.492C199.428 172.853 199.777 170.798 201.687 169.167C203.598 167.537 207.067 166.328 209.263 163.386C211.458 160.438 212.376 155.756 209.843 155.627C207.309 155.497 201.326 159.92 198.224 162.843C195.12 165.766 194.896 167.184 194.785 180.195C194.673 193.204 195.006 214.781 195.151 230.274C195.284 244.235 194.514 243.954 196.883 242.765C197.142 242.635 197.442 242.493 197.782 242.358C201.235 240.994 205.764 238.023 208.696 235.803C211.628 233.584 213.378 231.858 213.895 223.903C214.41 215.952 213.69 201.769 212.561 193.978C211.429 186.188 209.888 184.787 208.19 184.187C206.491 183.585 204.634 183.785 203.221 183.984C201.808 184.18 200.834 184.375 200.22 182.861C199.601 181.349 199.34 178.13 199.384 175.492ZM214.396 259.6C216.253 258.298 220.037 255.694 221.872 254.275C223.709 252.859 223.595 252.624 223.538 250.504C223.482 248.383 223.482 244.373 223.356 241.798C223.231 239.224 222.979 238.084 219.703 239.681C216.43 241.276 210.133 245.611 206.954 247.811C203.774 250.01 203.712 250.076 203.681 268.366C203.651 286.655 203.651 323.166 203.651 341.463C203.651 359.758 203.651 359.841 205.134 358.862C206.618 357.88 209.585 355.839 211.089 354.86C212.592 353.883 212.635 353.969 212.655 338.487C212.676 323.004 212.676 291.952 212.641 276.429C212.606 260.902 212.537 260.902 214.396 259.6ZM265.681 267.423C268.242 258.866 268.926 258.948 269.266 259.397C269.609 259.846 269.605 260.661 269.605 272.03C269.605 283.399 269.596 305.32 269.662 316.329C269.728 327.335 269.841 327.427 271.485 326.387C273.126 325.349 276.24 323.183 277.816 322.196C279.39 321.214 279.314 321.418 279.314 301.39V221.053C279.314 201.004 279.39 201.167 278.669 201.248C277.952 201.33 276.588 201.33 275.289 202.022C273.988 202.717 272.826 204.1 269.546 216.806C266.263 229.511 260.861 253.537 258.06 265.516C255.254 277.496 255.05 277.432 254.64 277.398C254.228 277.364 253.612 277.364 250.81 269.216C248.007 261.067 243.017 244.769 240.454 236.618C237.888 228.468 237.752 228.468 236.417 229.324C235.084 230.179 232.555 231.89 231.049 233.073C229.545 234.256 229.067 234.908 228.828 254.425C228.589 273.944 228.589 312.33 228.589 331.604C228.589 350.878 228.589 351.041 229.98 350.163C231.372 349.288 234.155 347.372 235.522 346.398C236.887 345.421 236.836 345.388 236.812 332.654C236.785 319.918 236.785 294.488 237.01 281.615C237.234 268.745 237.685 268.435 238.108 268.041C238.531 267.648 238.932 267.175 241.614 274.216C244.296 281.256 249.262 295.815 251.744 303.093C254.227 310.371 254.227 310.371 256.449 301.773C258.675 293.177 263.118 275.98 265.681 267.423ZM308.848 681.042C307.62 681.609 306.315 682.111 304.905 682.575C302.668 686.852 300.407 691.111 298.123 695.352C288.218 713.733 279.637 728.351 271.12 741.362C264.122 752.05 257.675 760.882 251.955 767.614C246.961 773.491 242.767 777.482 239.133 779.813C235.677 782.026 233.292 782.474 230.357 781.479C227.722 780.579 224.207 778.382 216.402 768.472C209.504 759.717 198.452 743.9 189.31 728.306C181.774 715.46 175.542 702.802 167.256 683.388L164.132 683.09C172.853 703.645 179.283 716.768 187.119 730.133C196.337 745.858 207.489 761.814 214.453 770.654C222.245 780.546 226.151 783.359 229.623 784.544C230.759 784.942 231.937 785.147 233.121 785.152C235.392 785.152 237.706 784.348 240.401 782.619C244.262 780.143 248.656 775.976 253.834 769.882C259.635 763.055 266.161 754.12 273.228 743.323C281.797 730.235 290.422 715.54 300.374 697.078C303.236 691.761 306.061 686.415 308.848 681.042ZM359.159 582.19C359.122 581.048 358.508 581.048 356.867 583.371C355.227 585.694 352.561 590.339 347.979 598.447C343.397 606.556 336.904 618.128 331.465 626.687C326.032 635.242 321.653 640.785 317.177 645.431C312.699 650.079 308.117 653.827 303.535 656.394C298.954 658.96 294.376 660.346 286.374 661.567C278.376 662.791 266.957 663.85 254.549 664.379C242.139 664.907 228.738 664.907 202.585 664.544C176.432 664.175 137.529 663.443 117.017 662.791C96.5039 662.139 94.3864 661.567 93.1886 660.957C91.9935 660.346 91.7194 659.694 91.4466 656.677C91.1711 653.662 90.8983 648.285 90.7619 645.593C90.6255 642.907 90.6255 642.907 93.3939 642.58C96.1636 642.253 101.702 641.603 108.059 640.5C114.418 639.401 121.599 637.853 129.666 635.855C137.735 633.859 146.689 631.414 156.296 627.952C165.902 624.489 176.159 620.005 184.329 616.254C192.499 612.506 198.584 609.489 205.05 605.328C211.518 601.164 218.365 595.852 224.415 590.516C230.466 585.179 235.72 579.814 240.467 574.563C245.214 569.312 249.453 564.179 254.343 557.701C259.23 551.222 264.769 543.396 270.477 535.166C276.186 526.936 282.067 518.297 288.049 510.839C294.033 503.382 300.116 497.107 308.459 491.116C316.801 485.128 327.396 479.422 335.431 476.367C343.466 473.312 348.935 472.903 353.719 472.618C358.507 472.333 362.608 472.168 366.3 473.063C369.992 473.962 373.273 475.916 375.326 478.809C377.376 481.705 378.198 485.534 376.081 492.834C373.958 500.135 368.902 510.908 364.561 519.6C360.222 528.296 356.603 534.911 352.537 541.87C348.469 548.827 343.955 556.123 339.71 563.078C335.469 570.029 331.503 576.641 326.921 583.163C322.339 589.689 317.144 596.127 312.016 602.362C306.886 608.594 301.827 614.625 297.314 619.516C292.801 624.406 288.838 628.155 285.144 631.456C281.451 634.757 278.033 637.608 275.024 639.808C272.016 642.009 269.419 643.557 268.12 644.861C266.82 646.166 266.82 647.226 269.111 647.836C271.401 648.449 275.982 648.61 279.914 648.407C283.845 648.203 287.128 647.633 292.22 645.474C297.313 643.314 304.22 639.564 309.072 636.142C313.931 632.719 316.733 629.622 320.39 625.26C324.048 620.901 328.559 615.279 332.765 608.881C336.972 602.482 340.868 595.31 344.595 587.893C348.319 580.48 351.875 572.818 355.429 564.628C358.987 556.437 362.543 547.716 366.644 537.326C370.745 526.936 375.395 514.873 378.676 505.704C381.961 496.536 383.876 490.262 386.882 482.152C389.892 474.043 393.993 464.1 396.01 458.6C398.028 453.098 397.956 452.037 392.521 451.835C387.088 451.63 376.288 452.28 367.738 453.729C359.19 455.173 352.902 457.412 345.76 460.306C338.621 463.199 330.634 466.746 322.634 471.334C314.635 475.918 306.625 481.542 300.978 485.903C295.332 490.263 292.05 493.36 288.569 496.781C285.088 500.204 281.408 503.953 277.749 508.193C274.091 512.428 270.457 517.155 267.135 521.801C263.813 526.448 260.804 531.011 257.249 536.513C253.693 542.015 249.592 548.45 244.567 555.133C239.195 562.259 233.403 568.918 227.235 575.061C220.875 581.377 214.107 587.081 206.585 592.38C199.065 597.676 190.791 602.566 182.655 606.925C174.519 611.286 166.519 615.116 157.187 618.701C147.853 622.286 137.188 625.627 129.154 627.992C121.121 630.355 115.719 631.739 109.461 632.962C103.206 634.184 96.096 635.243 90.7619 635.773C85.4291 636.304 81.8722 636.304 80.0613 636.629C78.249 636.956 78.1801 637.606 79.0012 643.108C79.8209 648.608 81.5319 658.958 82.3853 664.135C83.2415 669.308 83.2415 669.308 92.6079 670.205C101.977 671.103 120.709 672.894 136.538 674.118C152.366 675.341 165.288 675.991 176.329 676.724C187.372 677.458 196.533 678.274 208.704 679.206C220.873 680.138 236.051 681.187 248.155 681.366C260.26 681.543 269.289 680.848 276.963 679.52C284.641 678.192 290.956 676.228 296.461 674.055C301.961 671.88 306.645 669.493 312.202 665.084C317.757 660.671 324.185 654.232 330.132 645.024C336.079 635.813 341.55 623.834 346.132 613.85C350.713 603.87 354.405 595.881 356.526 590.747C358.644 585.613 359.19 583.331 359.159 582.19ZM326.009 509.032C325.897 513.014 325.803 516.998 325.728 520.981C325.631 526.678 325.675 529.149 325.353 530.881C325.027 532.611 324.332 533.604 323.334 534.163C322.34 534.717 321.04 534.839 319.707 534.613C318.372 534.39 317.006 533.82 315.861 532.801C314.713 531.782 313.791 530.316 312.783 528.933C311.776 527.552 310.683 526.25 309.714 525.587C308.744 524.927 307.896 524.903 307.45 525.612C307.006 526.322 306.96 527.769 307.471 529.513C307.981 531.254 309.041 533.294 310.408 535.269C311.777 537.244 313.452 539.159 316.108 541.07C318.767 542.982 322.406 544.886 325.702 545.574C328.999 546.263 331.952 545.733 334.86 544.265C337.766 542.799 340.621 540.395 342.727 538.197C344.832 536.003 346.183 534.015 347.097 532.513C348.011 531.011 348.489 529.991 348.732 528.859C348.975 527.727 348.986 526.485 348.364 526.007C347.744 525.527 346.499 525.814 345.196 526.903C343.893 527.995 342.534 529.889 341.067 531.265C339.601 532.64 338.029 533.496 336.679 533.984C335.328 534.472 334.202 534.596 333.208 534.474C332.22 534.351 331.362 533.984 330.85 533.294C330.338 532.6 330.166 531.581 329.995 525.855C329.866 521.555 329.739 514.601 329.635 509.059C331.088 509.059 332.464 509.046 333.547 509.017C336.573 508.935 337.361 508.732 337.908 508.306C338.453 507.879 338.762 507.226 338.934 506.575C339.103 505.922 339.139 505.27 339.172 504.925C339.208 504.579 339.24 504.537 335.497 504.52C333.972 504.51 331.818 504.504 329.551 504.502L329.544 504.166C329.523 502.88 329.491 501.594 329.446 500.309C329.959 499.981 330.389 499.494 330.689 498.899C330.989 498.305 331.15 497.624 331.153 496.93C331.153 494.796 329.679 493.057 327.875 493.057C326.068 493.057 324.597 494.796 324.597 496.93C324.6 497.622 324.759 498.3 325.058 498.893C325.356 499.486 325.783 499.973 326.293 500.302C326.271 500.763 326.252 501.291 326.229 501.914C326.202 502.661 326.174 503.539 326.144 504.499C323.979 504.499 321.939 504.502 320.472 504.505C316.711 504.52 316.711 504.537 316.711 504.883C316.711 505.23 316.711 505.902 316.875 506.549C317.037 507.193 317.362 507.816 317.909 508.223C318.456 508.631 319.229 508.826 322.243 508.941C323.288 508.982 324.61 509.011 326.009 509.032ZM413.463 455.078C412.453 454.901 410.917 456.251 409.506 457.818C408.098 459.387 406.814 461.166 404.332 465.684C401.852 470.202 398.18 477.457 394.84 485.181C391.499 492.906 388.489 501.098 384.521 512.04C380.556 522.982 375.635 536.674 371.695 547.175C367.754 557.68 364.796 564.992 363.737 568.926C362.677 572.857 363.515 573.407 365.538 569.75C367.564 566.095 370.779 558.229 374.469 549.776C378.161 541.319 382.333 532.273 386.47 523.106C390.607 513.938 394.71 504.644 398.505 496.621C402.298 488.592 405.787 481.827 408.556 475.714C411.323 469.603 413.377 464.143 414.163 460.557C414.948 456.971 414.47 455.258 413.463 455.078Z" stroke="#F0F0F0"/>
</svg>
