<svg width="25" height="25" viewBox="0 0 25 25" fill="none" xmlns="http://www.w3.org/2000/svg">
<g id="72716">
<path id="Vector" d="M22.2526 14.8137C22.2526 14.8137 24.2739 16.7691 24.7739 17.674C24.7876 17.6935 24.7939 17.7082 24.7964 17.7168C25.0001 18.0511 25.0501 18.3131 24.9501 18.5066C24.7814 18.8261 24.2101 18.9865 24.0164 19C24.0164 19 20.5439 19 20.4439 19C20.1951 19 19.6776 18.9363 19.0476 18.5102C18.5664 18.1809 18.0876 17.6384 17.6239 17.1083C16.9314 16.321 16.3326 15.6377 15.7264 15.6377C15.6489 15.6377 15.5739 15.65 15.5014 15.6745C15.0426 15.8165 14.4601 16.4569 14.4601 18.1625C14.4601 18.6963 14.0301 19 13.7289 19C13.7289 19 12.1689 19 12.0926 19C11.5351 19 8.63262 18.809 6.05887 16.1508C2.90512 12.8963 0.0726126 6.36768 0.0451126 6.31013C-0.131138 5.8877 0.238863 5.65751 0.638863 5.65751H4.24637C4.73012 5.65751 4.88762 5.94403 4.99762 6.20115C5.12512 6.49624 5.59762 7.67658 6.37262 9.00262C7.62762 11.16 8.39887 12.038 9.01512 12.038C9.13137 12.038 9.24137 12.0098 9.34512 11.9522C10.1501 11.5188 10.0001 8.70264 9.96262 8.12227C9.96262 8.00962 9.96137 6.86479 9.54887 6.31135C9.25387 5.91464 8.75137 5.76036 8.44762 5.70404C8.52887 5.58895 8.70137 5.41263 8.92262 5.30855C9.47387 5.03918 10.4701 5 11.4589 5H12.0076C13.0801 5.01469 13.3576 5.08204 13.7476 5.17876C14.5326 5.36243 14.5476 5.86077 14.4789 7.55781C14.4589 8.04268 14.4376 8.58877 14.4376 9.23159C14.4376 9.36872 14.4314 9.52178 14.4314 9.67728C14.4076 10.5478 14.3764 11.5286 15.0039 11.9314C15.0839 11.9804 15.1776 12.0073 15.2751 12.0073C15.4926 12.0073 16.1439 12.0073 17.9101 9.03813C18.6851 7.72678 19.2851 6.18034 19.3264 6.06402C19.3614 5.99913 19.4664 5.81669 19.5939 5.74322C19.6914 5.68445 19.8214 5.67465 19.8889 5.67465H24.1326C24.5951 5.67465 24.9089 5.74322 24.9701 5.91464C25.0726 6.19258 24.9501 7.04111 23.0126 9.60749C22.6864 10.0348 22.4001 10.4046 22.1489 10.7278C20.3926 12.9857 20.3926 13.0995 22.2526 14.8137Z" fill="white"/>
</g>
</svg>
