<svg width="90" height="90" viewBox="0 0 90 90" fill="none" xmlns="http://www.w3.org/2000/svg">
<g id="Property 1=hover">
<path id="Vector" d="M78.75 45C78.75 26.3672 63.6328 11.25 45 11.25C26.3672 11.25 11.25 26.3672 11.25 45C11.25 63.6328 26.3672 78.75 45 78.75C63.6328 78.75 78.75 63.6328 78.75 45Z" stroke="#01437C" stroke-width="3" stroke-miterlimit="10"/>
<path id="Vector_2" d="M38.025 58.7883L58.1432 46.6348C58.4236 46.4639 58.6554 46.2238 58.8162 45.9375C58.977 45.6512 59.0615 45.3284 59.0615 45C59.0615 44.6716 58.977 44.3488 58.8162 44.0625C58.6554 43.7762 58.4236 43.5361 58.1432 43.3652L38.025 31.2117C37.7367 31.039 37.4075 30.946 37.0714 30.9424C36.7353 30.9388 36.4042 31.0247 36.1122 31.1913C35.8202 31.3579 35.5778 31.5991 35.4098 31.8903C35.2418 32.1815 35.1543 32.5121 35.1563 32.8482V57.1518C35.1543 57.4879 35.2418 57.8185 35.4098 58.1097C35.5778 58.4009 35.8202 58.6421 36.1122 58.8087C36.4042 58.9753 36.7353 59.0612 37.0714 59.0576C37.4075 59.054 37.7367 58.961 38.025 58.7883Z" fill="#00AEEF"/>
</g>
</svg>
