<svg width="90" height="90" viewBox="0 0 90 90" fill="none" xmlns="http://www.w3.org/2000/svg">
<g id="ion:play-circle-outline">
<path id="Vector" d="M78.75 45C78.75 26.3672 63.6328 11.25 45 11.25C26.3672 11.25 11.25 26.3672 11.25 45C11.25 63.6328 26.3672 78.75 45 78.75C63.6328 78.75 78.75 63.6328 78.75 45Z" stroke="#01437C" stroke-width="3" stroke-miterlimit="10"/>
<path id="Vector_2" d="M38.025 58.7882L58.1432 46.6347C58.4236 46.4639 58.6554 46.2238 58.8162 45.9375C58.977 45.6512 59.0615 45.3283 59.0615 44.9999C59.0615 44.6716 58.977 44.3487 58.8162 44.0624C58.6554 43.7761 58.4236 43.536 58.1432 43.3652L38.025 31.2117C37.7367 31.0389 37.4075 30.946 37.0714 30.9424C36.7353 30.9388 36.4042 31.0247 36.1122 31.1912C35.8202 31.3578 35.5778 31.5991 35.4098 31.8902C35.2418 32.1814 35.1543 32.512 35.1563 32.8482V57.1517C35.1543 57.4879 35.2418 57.8185 35.4098 58.1096C35.5778 58.4008 35.8202 58.6421 36.1122 58.8086C36.4042 58.9752 36.7353 59.0611 37.0714 59.0575C37.4075 59.0539 37.7367 58.961 38.025 58.7882Z" fill="#01437C"/>
</g>
</svg>
